<?xml version="1.0" encoding="utf-8"?>
<svg version="1.1" xmlns:xlink="http://www.w3.org/1999/xlink" width="400px" height="267px" xmlns="http://www.w3.org/2000/svg">
  <g transform="matrix(1 0 0 1 -410 -402 )">
    <path d="M 410 402  L 810 402  L 810 669  L 410 669  L 410 402  " fill-rule="nonzero" fill="#cccccc" stroke="none" />
    <path d="M 429 421  L 791 421  L 791 650  L 429 650  L 429 421  " fill-rule="nonzero" fill="#ffffff" stroke="none" />
    <path d="M 638.025 482.1  C 626.811 482.1  618 473.289  618 462.075  C 618 450.861  626.811 442.05  638.025 442.05  C 649.239 442.05  658.05 450.861  658.05 462.075  C 658.05 473.289  649.239 482.1  638.025 482.1  " fill-rule="nonzero" fill="#cccccc" stroke="none" />
    <path d="M 436 644  L 436 525.2  L 523.25 471.2  L 645.4 557.492  L 715.2 503.6  L 785 557.492  L 785 644  L 436 644  " fill-rule="nonzero" fill="#169bd5" stroke="none" />
  </g>
</svg>